<svg version="1.1" xmlns="http://www.w3.org/2000/svg" xmlns:xlink="http://www.w3.org/1999/xlink" width="512" height="512" viewBox="0,0,256,256"><g fill="#ffffff" fill-rule="nonzero" stroke="none" stroke-width="1" stroke-linecap="butt" stroke-linejoin="miter" stroke-miterlimit="10" stroke-dasharray="" stroke-dashoffset="0" font-family="none" font-weight="none" font-size="none" text-anchor="none" style="mix-blend-mode: normal"><g transform="translate(0,1.79733) scale(10.66667,10.66667)"><path d="M14.831,15c-0.128,0 -0.256,-0.049 -0.354,-0.146c-0.195,-0.195 -0.195,-0.512 0,-0.707l3.083,-3.083c0.585,-0.585 0.585,-1.537 0,-2.122l-3.088,-3.088c-0.195,-0.195 -0.195,-0.512 0,-0.707c0.195,-0.195 0.512,-0.195 0.707,0l3.088,3.088c0.975,0.975 0.975,2.562 0,3.536l-3.083,3.083c-0.098,0.098 -0.226,0.146 -0.354,0.146zM9.523,14.854c0.195,-0.195 0.195,-0.512 0,-0.707l-3.083,-3.083c-0.585,-0.585 -0.585,-1.537 0,-2.122l3.088,-3.088c0.195,-0.195 0.195,-0.512 0,-0.707c-0.195,-0.195 -0.512,-0.195 -0.707,0l-3.088,3.088c-0.975,0.975 -0.975,2.562 0,3.536l3.083,3.083c0.098,0.098 0.226,0.146 0.354,0.146c0.128,0 0.256,-0.049 0.354,-0.146zM12.983,23.295l3.985,-3.295h3.532c1.93,0 3.5,-1.57 3.5,-3.5v-13c0,-1.93 -1.57,-3.5 -3.5,-3.5h-17c-1.93,0 -3.5,1.57 -3.5,3.5v13c0,1.93 1.57,3.5 3.5,3.5h3.606l3.897,3.283c0.286,0.254 0.645,0.38 1.001,0.38c0.353,0 0.703,-0.123 0.979,-0.368zM20.5,1c1.378,0 2.5,1.121 2.5,2.5v13c0,1.379 -1.122,2.5 -2.5,2.5h-3.711c-0.116,0 -0.229,0.041 -0.318,0.114l-4.138,3.421c-0.19,0.17 -0.475,0.169 -0.675,-0.009l-4.047,-3.409c-0.09,-0.075 -0.205,-0.117 -0.322,-0.117h-3.789c-1.378,0 -2.5,-1.121 -2.5,-2.5v-13c0,-1.379 1.122,-2.5 2.5,-2.5z"></path></g></g></svg>